<?xml version="1.0" standalone="no"?>
<!DOCTYPE svg PUBLIC "-//W3C//DTD SVG 20010904//EN"
 "http://www.w3.org/TR/2001/REC-SVG-20010904/DTD/svg10.dtd">
<svg version="1.0" xmlns="http://www.w3.org/2000/svg"
 width="344.000000pt" height="288.000000pt" viewBox="0 0 344.000000 288.000000"
 preserveAspectRatio="xMidYMid meet">

<g transform="translate(0.000000,288.000000) scale(0.100000,-0.100000)"
fill="#000000" stroke="none">
<path d="M1457 2381 c-3 -14 -13 -21 -30 -21 -14 0 -61 -14 -104 -31 -138 -55
-156 -60 -200 -58 -53 4 -59 -2 -38 -35 21 -32 13 -44 -36 -52 -22 -4 -42 -11
-46 -17 -6 -10 29 -46 62 -65 14 -7 14 -14 -4 -55 -14 -33 -26 -47 -40 -47
-27 0 -61 -46 -61 -82 0 -27 3 -30 25 -24 34 9 32 -7 -11 -89 -31 -58 -34 -71
-24 -90 9 -16 9 -32 0 -64 -13 -49 0 -75 34 -68 17 4 26 -5 48 -51 21 -44 39
-65 77 -89 27 -18 59 -33 69 -33 11 0 25 -7 32 -15 10 -13 10 -19 -2 -33 -8
-9 -18 -25 -21 -35 -4 -10 -27 -26 -51 -37 -25 -10 -47 -27 -51 -39 -4 -13
-20 -24 -44 -31 -72 -19 -103 -49 -160 -159 l-53 -103 -24 36 c-18 26 -24 49
-24 87 0 41 -9 70 -41 136 -29 58 -47 83 -60 83 -10 0 -21 -4 -24 -10 -3 -5
-10 -10 -15 -10 -16 0 -111 201 -115 242 -2 22 -9 46 -16 54 -17 21 -66 18
-79 -5 -15 -29 -13 -37 19 -73 23 -27 109 -227 99 -232 -2 -1 -16 -6 -33 -12
-16 -5 -35 -19 -41 -32 -6 -12 -18 -30 -27 -39 -8 -10 -20 -29 -26 -43 -6 -14
-16 -32 -22 -41 -18 -25 -2 -82 36 -132 28 -37 35 -55 35 -91 0 -54 12 -88 40
-114 12 -11 37 -54 55 -96 82 -189 214 -283 321 -228 41 21 98 77 128 125 9
15 21 25 26 22 18 -11 11 -92 -11 -130 -14 -24 -20 -46 -16 -68 2 -17 0 -58
-5 -90 -9 -51 -8 -60 8 -79 46 -51 192 -114 318 -137 208 -38 500 22 595 122
29 31 33 41 28 69 -14 73 -14 73 15 70 16 -2 53 4 85 13 31 9 80 17 109 18 60
3 91 24 118 85 11 23 37 51 68 72 70 48 93 81 92 133 0 23 -4 52 -8 63 -7 20
-3 23 64 35 39 7 73 16 76 21 7 10 -34 290 -47 326 -11 29 -32 29 -247 -5
l-172 -27 -38 35 c-52 50 -129 98 -168 105 -19 3 -40 16 -49 31 -9 14 -32 31
-51 39 -36 15 -70 57 -60 73 4 6 27 8 56 4 49 -6 148 16 178 40 25 19 14 64
-24 95 -29 24 -34 34 -29 54 4 14 17 30 31 37 27 12 32 54 13 109 -8 25 -7 37
10 71 40 77 17 174 -49 216 -20 13 -41 40 -56 75 -14 30 -46 78 -73 105 -28
30 -52 66 -59 90 -23 80 -100 131 -215 142 -59 5 -64 4 -70 -16z m172 -41 c71
-36 94 -84 71 -145 -11 -29 -64 -55 -124 -61 -49 -5 -160 21 -195 44 -51 36
-56 33 -15 -6 89 -87 253 -96 340 -20 l35 31 28 -27 c35 -34 85 -122 76 -136
-3 -5 -16 -10 -29 -10 -31 0 -86 -38 -114 -80 -20 -30 -29 -35 -65 -36 -23 0
-50 -4 -59 -8 -13 -6 -21 1 -37 32 -59 116 -193 132 -288 34 l-43 -44 -66 37
c-60 34 -65 39 -59 63 10 42 40 77 66 77 39 0 34 19 -8 29 -69 15 -112 46 -65
46 27 0 112 31 112 40 0 5 -9 12 -20 15 -31 10 -24 23 18 31 20 4 73 23 117
43 74 33 87 36 178 36 97 0 113 5 80 24 -35 20 25 12 66 -9z m241 -369 c5 -11
10 -27 10 -36 0 -14 -4 -14 -26 4 -34 27 -47 26 -79 -1 -34 -30 -45 -106 -21
-143 36 -56 96 -13 96 69 0 19 5 38 10 41 12 7 33 -42 24 -57 -3 -5 2 -30 11
-54 13 -35 14 -48 5 -59 -19 -23 -73 -28 -113 -12 -71 30 -94 110 -55 187 34
67 115 103 138 61z m-409 -6 c67 -35 90 -131 46 -196 -31 -47 -99 -71 -156
-57 -75 19 -130 113 -102 174 16 36 45 17 47 -29 3 -100 113 -132 148 -44 27
65 27 95 2 122 -12 13 -34 29 -47 34 l-24 10 28 0 c15 1 41 -6 58 -14z m474
-33 c0 -18 -20 -15 -23 4 -3 10 1 15 10 12 7 -3 13 -10 13 -16z m-795 -47 c60
-39 71 -51 81 -87 16 -61 72 -113 129 -122 25 -3 60 -2 79 4 37 10 47 8 36
-10 -13 -20 -59 -33 -117 -31 -47 1 -60 -2 -77 -21 -25 -26 -27 -75 -5 -107 9
-12 36 -31 59 -41 31 -13 48 -29 60 -55 36 -74 86 -92 214 -78 89 10 94 7 67
-46 -18 -35 -52 -57 -122 -81 -49 -17 -58 -18 -94 -5 -93 33 -173 96 -185 147
-6 23 -3 29 16 36 l23 9 -21 12 c-12 6 -28 11 -35 11 -7 0 -41 13 -74 29 -69
32 -109 77 -119 133 -6 32 -11 37 -39 40 -27 3 -31 6 -28 28 2 14 13 44 23 67
23 51 23 57 4 49 -16 -6 -21 19 -6 29 5 3 19 34 31 70 12 36 24 65 26 65 3 0
36 -20 74 -45z m280 30 c26 -31 -18 -71 -47 -42 -19 19 -8 57 16 57 10 0 24
-7 31 -15z m414 -8 c8 -13 6 -21 -7 -34 -23 -23 -42 -4 -33 32 7 28 23 29 40
2z m134 -59 c2 -8 -2 -28 -8 -44 -11 -28 -12 -28 -26 -10 -17 24 -18 63 -1 69
18 8 32 2 35 -15z m-307 2 c11 -6 19 -21 19 -37 0 -23 -3 -25 -29 -20 -16 4
-43 2 -60 -3 -28 -8 -31 -6 -31 12 0 47 54 72 101 48z m-321 -10 c0 -5 -4 -10
-10 -10 -5 0 -10 5 -10 10 0 6 5 10 10 10 6 0 10 -4 10 -10z m598 -155 c7 -14
12 -35 12 -47 0 -17 -4 -19 -25 -14 -24 6 -25 4 -25 -34 0 -51 -15 -52 -62 -2
-70 73 -75 104 -15 96 27 -3 51 0 67 10 34 19 35 19 48 -9z m-638 -422 c14
-12 49 -35 77 -50 51 -27 64 -45 43 -58 -6 -4 -24 -33 -40 -66 -17 -32 -34
-59 -39 -59 -16 0 -82 81 -100 123 -25 58 -34 128 -21 161 l10 28 23 -28 c12
-16 33 -39 47 -51z m434 35 c20 -77 -6 -192 -56 -245 -28 -30 -35 -29 -43 6
-3 16 -20 51 -37 77 -17 27 -26 50 -20 52 29 9 96 67 114 98 23 40 33 43 42
12z m-1016 -101 c43 -88 46 -106 28 -173 -17 -64 -41 -92 -111 -125 -57 -27
-79 -24 -122 17 -84 79 -116 161 -73 184 14 8 19 17 15 30 -7 23 27 44 59 36
19 -5 20 -4 4 8 -41 31 4 72 51 47 25 -14 51 -61 51 -94 0 -35 -11 -40 -36
-16 l-23 22 11 -30 c13 -36 4 -68 -17 -59 -10 4 -15 -1 -15 -15 0 -25 -27 -36
-52 -20 -27 17 -37 5 -12 -14 34 -27 75 -15 109 32 33 46 46 51 65 28 19 -23
54 -15 58 13 2 12 -10 47 -27 77 -33 58 -39 93 -19 113 16 16 22 10 56 -61z
m392 -79 c61 -202 194 -364 362 -440 l37 -17 75 50 c42 27 96 73 121 102 77
88 145 245 145 340 0 23 5 40 14 43 15 6 96 -31 96 -44 -1 -31 -32 -148 -49
-181 -15 -29 -21 -59 -21 -108 0 -37 -7 -95 -14 -127 -11 -45 -12 -82 -5 -150
4 -50 9 -96 9 -103 0 -6 -16 -32 -35 -57 -40 -53 -34 -60 14 -15 34 31 44 30
55 -7 16 -53 -117 -134 -264 -160 -207 -37 -537 31 -598 124 -14 21 -14 26 1
58 l17 34 55 -45 c31 -25 63 -45 72 -45 9 0 -1 12 -24 29 -22 16 -50 41 -62
57 -37 46 -42 104 -6 74 19 -16 19 -11 -2 30 -9 19 -18 56 -21 83 l-5 49 33
-7 33 -7 -22 28 c-20 25 -21 35 -15 91 6 58 -8 157 -25 167 -3 2 -6 -39 -6
-92 0 -88 -3 -105 -35 -182 -37 -90 -95 -171 -150 -208 -64 -43 -154 -21 -220
54 -31 36 -100 166 -100 190 0 6 24 14 55 17 65 7 132 42 169 89 l25 33 25
-58 c14 -31 30 -57 35 -57 5 0 14 -12 19 -27 6 -16 11 -23 11 -17 1 6 -6 30
-14 53 -14 41 -14 42 5 36 29 -9 25 -1 -20 44 -22 22 -40 47 -40 55 0 17 101
219 123 244 15 18 108 63 118 56 4 -2 17 -37 29 -76z m441 29 c9 -7 21 -22 28
-34 39 -74 -78 -139 -143 -78 -33 30 -34 68 -1 100 27 28 88 34 116 12z m484
-37 c32 -33 28 -44 -22 -53 -31 -6 -33 -5 -33 22 0 33 9 61 19 61 4 0 20 -14
36 -30z m470 -17 c16 -41 53 -289 45 -297 -13 -13 -16 -1 -40 144 -11 68 -24
128 -29 133 -8 8 -42 4 -340 -43 -73 -11 -136 -18 -139 -15 -14 14 25 24 188
49 96 15 195 31 220 36 71 12 87 11 95 -7z m-1090 -152 c-10 -34 -21 -61 -25
-61 -11 0 -100 126 -100 142 0 5 13 0 29 -11 38 -27 40 -27 53 10 l11 31 25
-26 25 -25 -18 -60z m205 87 c0 -7 4 -19 9 -27 8 -12 13 -12 35 3 14 9 26 12
26 8 0 -12 -72 -122 -80 -122 -3 0 -14 25 -25 55 -18 53 -18 56 0 75 21 23 35
26 35 8z m369 -163 c13 -87 17 -141 11 -143 -5 -2 -19 -11 -31 -21 -20 -16
-20 -17 20 -13 41 4 51 -4 30 -25 -6 -6 -15 -32 -20 -58 -12 -66 5 -132 44
-173 38 -40 28 -52 -45 -52 -44 0 -48 2 -48 24 0 13 -9 35 -21 50 -18 23 -21
41 -22 154 -2 152 14 313 37 366 10 21 19 36 21 34 2 -2 13 -66 24 -143z
m-441 98 c34 -90 35 -103 11 -129 -33 -35 -55 -38 -94 -14 -42 26 -44 55 -10
158 3 7 21 12 43 12 34 0 41 -4 50 -27z m806 -168 c41 -20 66 -63 66 -114 0
-34 -7 -49 -40 -85 -47 -51 -160 -111 -191 -101 -42 14 -72 99 -53 149 11 29
24 16 24 -24 0 -22 5 -40 10 -40 18 0 11 74 -10 105 -26 40 -25 55 4 55 23 0
77 -50 88 -82 3 -7 9 -10 13 -6 7 7 -7 32 -61 105 -24 33 -9 46 42 39 26 -3
44 -2 44 4 0 14 27 12 64 -5z"/>
<path d="M2315 764 c11 -10 28 -28 39 -39 10 -11 7 -4 -6 14 -14 19 -31 37
-39 40 -8 2 -5 -4 6 -15z"/>
</g>
</svg>
